<svg width="499" height="499" viewBox="0 0 499 499" fill="none" xmlns="http://www.w3.org/2000/svg">
<rect width="499" height="499" rx="48" fill="white"/>
<path d="M167.488 227.296C167.488 221.984 168.832 218.08 171.52 215.584C174.208 213.088 177.536 211.84 181.504 211.84C182.72 211.84 183.904 211.936 185.056 212.128L184.192 216.832C183.04 216.704 182.208 216.64 181.696 216.64C175.808 216.64 172.864 220.192 172.864 227.296V231.904H183.808L181.504 236.992H172.864V280H167.488V227.296ZM222.587 275.104C221.051 277.024 219.099 278.496 216.731 279.52C214.427 280.544 212.091 281.056 209.723 281.056C197.691 281.056 191.675 275.2 191.675 263.488V231.904H197.051V264.16C197.051 268.256 198.171 271.296 200.411 273.28C202.715 275.264 205.819 276.256 209.723 276.256C213.563 276.256 216.571 275.296 218.747 273.376C220.987 271.392 222.107 268.32 222.107 264.16V231.904H227.483V280H222.203L222.587 275.104ZM247.956 249.568L242.964 253.888V280H237.588V212.8H242.964V247.84L262.164 230.08L266.004 233.824L251.796 246.208C256.148 253.44 263.156 264.704 272.82 280H266.388L247.956 249.568ZM307.149 275.104C305.613 277.024 303.661 278.496 301.293 279.52C298.989 280.544 296.653 281.056 294.285 281.056C282.253 281.056 276.237 275.2 276.237 263.488V231.904H281.613V264.16C281.613 268.256 282.733 271.296 284.973 273.28C287.277 275.264 290.381 276.256 294.285 276.256C298.125 276.256 301.133 275.296 303.309 273.376C305.549 271.392 306.669 268.32 306.669 264.16V231.904H312.045V280H306.765L307.149 275.104Z" fill="black"/>
<path d="M329.488 227.296C329.488 221.984 330.832 218.08 333.52 215.584C336.208 213.088 339.536 211.84 343.504 211.84C344.72 211.84 345.904 211.936 347.056 212.128L346.192 216.832C345.04 216.704 344.208 216.64 343.696 216.64C337.808 216.64 334.864 220.192 334.864 227.296V231.904H345.808L343.504 236.992H334.864V280H329.488V227.296ZM384.587 275.104C383.051 277.024 381.099 278.496 378.731 279.52C376.427 280.544 374.091 281.056 371.723 281.056C359.691 281.056 353.675 275.2 353.675 263.488V231.904H359.051V264.16C359.051 268.256 360.171 271.296 362.411 273.28C364.715 275.264 367.819 276.256 371.723 276.256C375.563 276.256 378.571 275.296 380.747 273.376C382.987 271.392 384.107 268.32 384.107 264.16V231.904H389.483V280H384.203L384.587 275.104ZM409.956 249.568L404.964 253.888V280H399.588V212.8H404.964V247.84L424.164 230.08L428.004 233.824L413.796 246.208C418.148 253.44 425.156 264.704 434.82 280H428.388L409.956 249.568ZM469.149 275.104C467.613 277.024 465.661 278.496 463.293 279.52C460.989 280.544 458.653 281.056 456.285 281.056C444.253 281.056 438.237 275.2 438.237 263.488V231.904H443.613V264.16C443.613 268.256 444.733 271.296 446.973 273.28C449.277 275.264 452.381 276.256 456.285 276.256C460.125 276.256 463.133 275.296 465.309 273.376C467.549 271.392 468.669 268.32 468.669 264.16V231.904H474.045V280H468.765L469.149 275.104Z" fill="black"/>
<path d="M144 249C144 283.242 116.242 311 82 311C47.7583 311 20 283.242 20 249C20 214.758 47.7583 187 82 187C104.112 233.825 144 214.758 144 249Z" fill="#86B9F4"/>
</svg>
