<?xml version="1.0"?>
<svg width="499" height="202" xmlns="http://www.w3.org/2000/svg" xmlns:svg="http://www.w3.org/2000/svg">
 <g class="layer">
  <title>Layer 1</title>
  <path d="m172.49,79.3c0,-5.32 1.34,-9.22 4.03,-11.72c2.69,-2.49 6.02,-3.74 9.98,-3.74c1.22,0 2.4,0.1 3.56,0.29l-0.87,4.7c-1.15,-0.13 -1.98,-0.19 -2.49,-0.19c-5.89,0 -8.84,3.55 -8.84,10.66l0,4.6l10.95,0l-2.31,5.09l-8.64,0l0,43.01l-5.37,0l0,-52.7zm55.1,47.8c-1.54,1.92 -3.49,3.4 -5.86,4.42c-2.3,1.02 -4.64,1.54 -7.01,1.54c-12.03,0 -18.04,-5.86 -18.04,-17.57l0,-31.59l5.37,0l0,32.26c0,4.1 1.12,7.14 3.36,9.12c2.31,1.98 5.41,2.98 9.31,2.98c3.84,0 6.85,-0.96 9.03,-2.88c2.24,-1.99 3.36,-5.06 3.36,-9.22l0,-32.26l5.37,0l0,48.1l-5.28,0l0.39,-4.9zm25.37,-25.53l-5,4.32l0,26.11l-5.37,0l0,-67.2l5.37,0l0,35.04l19.2,-17.76l3.84,3.74l-14.2,12.39c4.35,7.23 11.36,18.49 21.02,33.79l-6.43,0l-18.43,-30.43zm59.19,25.53c-1.54,1.92 -3.49,3.4 -5.86,4.42c-2.3,1.02 -4.64,1.54 -7,1.54c-12.04,0 -18.05,-5.86 -18.05,-17.57l0,-31.59l5.37,0l0,32.26c0,4.1 1.12,7.14 3.36,9.12c2.31,1.98 5.41,2.98 9.32,2.98c3.84,0 6.84,-0.96 9.02,-2.88c2.24,-1.99 3.36,-5.06 3.36,-9.22l0,-32.26l5.38,0l0,48.1l-5.29,0l0.39,-4.9z" fill="black" id="svg_2"/>
  <path d="m331.49,79.3c0,-5.32 1.34,-9.22 4.03,-11.72c2.69,-2.49 6.02,-3.74 9.98,-3.74c1.22,0 2.4,0.1 3.56,0.29l-0.87,4.7c-1.15,-0.13 -1.98,-0.19 -2.49,-0.19c-5.89,0 -8.84,3.55 -8.84,10.66l0,4.6l10.95,0l-2.31,5.09l-8.64,0l0,43.01l-5.37,0l0,-52.7zm55.1,47.8c-1.54,1.92 -3.49,3.4 -5.86,4.42c-2.3,1.02 -4.64,1.54 -7.01,1.54c-12.03,0 -18.04,-5.86 -18.04,-17.57l0,-31.59l5.37,0l0,32.26c0,4.1 1.12,7.14 3.36,9.12c2.3,1.98 5.41,2.98 9.31,2.98c3.84,0 6.85,-0.96 9.03,-2.88c2.24,-1.99 3.36,-5.06 3.36,-9.22l0,-32.26l5.37,0l0,48.1l-5.28,0l0.39,-4.9zm25.37,-25.53l-5,4.32l0,26.11l-5.37,0l0,-67.2l5.37,0l0,35.04l19.2,-17.76l3.84,3.74l-14.2,12.39c4.35,7.23 11.36,18.49 21.02,33.79l-6.43,0l-18.43,-30.43zm59.19,25.53c-1.54,1.92 -3.49,3.4 -5.86,4.42c-2.3,1.02 -4.64,1.54 -7,1.54c-12.04,0 -18.05,-5.86 -18.05,-17.57l0,-31.59l5.37,0l0,32.26c0,4.1 1.12,7.14 3.36,9.12c2.31,1.98 5.41,2.98 9.32,2.98c3.84,0 6.84,-0.96 9.02,-2.88c2.24,-1.99 3.36,-5.06 3.36,-9.22l0,-32.26l5.38,0l0,48.1l-5.29,0l0.39,-4.9z" fill="black" id="svg_3"/>
  <path d="m149,101c0,34.24 -27.76,62 -62,62c-34.24,0 -62,-27.76 -62,-62c0,-34.24 27.76,-62 62,-62c22.11,46.82 62,27.76 62,62z" fill="#86B9F4" id="svg_4"/>
 </g>

</svg>