<svg width="498" height="178" viewBox="0 0 498 178" fill="none" xmlns="http://www.w3.org/2000/svg">
<rect width="498" height="178" rx="48" fill="white"/>
<path d="M167.488 67.296C167.488 61.984 168.832 58.08 171.52 55.584C174.208 53.088 177.536 51.84 181.504 51.84C182.72 51.84 183.904 51.936 185.056 52.128L184.192 56.832C183.04 56.704 182.208 56.64 181.696 56.64C175.808 56.64 172.864 60.192 172.864 67.296V71.904H183.808L181.504 76.992H172.864V120H167.488V67.296ZM222.587 115.104C221.051 117.024 219.099 118.496 216.731 119.52C214.427 120.544 212.091 121.056 209.723 121.056C197.691 121.056 191.675 115.2 191.675 103.488V71.904H197.051V104.16C197.051 108.256 198.171 111.296 200.411 113.28C202.715 115.264 205.819 116.256 209.723 116.256C213.563 116.256 216.571 115.296 218.747 113.376C220.987 111.392 222.107 108.32 222.107 104.16V71.904H227.483V120H222.203L222.587 115.104ZM247.956 89.568L242.964 93.888V120H237.588V52.8H242.964V87.84L262.164 70.08L266.004 73.824L251.796 86.208C256.148 93.44 263.156 104.704 272.82 120H266.388L247.956 89.568ZM307.149 115.104C305.613 117.024 303.661 118.496 301.293 119.52C298.989 120.544 296.653 121.056 294.285 121.056C282.253 121.056 276.237 115.2 276.237 103.488V71.904H281.613V104.16C281.613 108.256 282.733 111.296 284.973 113.28C287.277 115.264 290.381 116.256 294.285 116.256C298.125 116.256 301.133 115.296 303.309 113.376C305.549 111.392 306.669 108.32 306.669 104.16V71.904H312.045V120H306.765L307.149 115.104Z" fill="black"/>
<path d="M329.488 67.296C329.488 61.984 330.832 58.08 333.52 55.584C336.208 53.088 339.536 51.84 343.504 51.84C344.72 51.84 345.904 51.936 347.056 52.128L346.192 56.832C345.04 56.704 344.208 56.64 343.696 56.64C337.808 56.64 334.864 60.192 334.864 67.296V71.904H345.808L343.504 76.992H334.864V120H329.488V67.296ZM384.587 115.104C383.051 117.024 381.099 118.496 378.731 119.52C376.427 120.544 374.091 121.056 371.723 121.056C359.691 121.056 353.675 115.2 353.675 103.488V71.904H359.051V104.16C359.051 108.256 360.171 111.296 362.411 113.28C364.715 115.264 367.819 116.256 371.723 116.256C375.563 116.256 378.571 115.296 380.747 113.376C382.987 111.392 384.107 108.32 384.107 104.16V71.904H389.483V120H384.203L384.587 115.104ZM409.956 89.568L404.964 93.888V120H399.588V52.8H404.964V87.84L424.164 70.08L428.004 73.824L413.796 86.208C418.148 93.44 425.156 104.704 434.82 120H428.388L409.956 89.568ZM469.149 115.104C467.613 117.024 465.661 118.496 463.293 119.52C460.989 120.544 458.653 121.056 456.285 121.056C444.253 121.056 438.237 115.2 438.237 103.488V71.904H443.613V104.16C443.613 108.256 444.733 111.296 446.973 113.28C449.277 115.264 452.381 116.256 456.285 116.256C460.125 116.256 463.133 115.296 465.309 113.376C467.549 111.392 468.669 108.32 468.669 104.16V71.904H474.045V120H468.765L469.149 115.104Z" fill="black"/>
<path d="M144 89C144 123.242 116.242 151 82 151C47.7583 151 20 123.242 20 89C20 54.7584 47.7583 27 82 27C104.112 73.8252 144 54.7584 144 89Z" fill="#86B9F4"/>
</svg>
